<svg width="1024" height="1024" viewBox="0 0 1024 1024" fill="none" xmlns="http://www.w3.org/2000/svg">
<path d="M185 376H348V870C348 899.823 323.823 924 294 924H239C209.177 924 185 899.823 185 870V376Z" fill="#92F8FF"/>
<path d="M533.181 726.247C518.269 700.419 527.118 667.393 552.946 652.482L601.067 624.699C626.809 609.837 659.722 618.573 674.705 644.244L790.844 843.233C811.855 879.232 785.889 924.453 744.207 924.453L678.79 924.453C659.498 924.453 641.671 914.16 632.025 897.452L533.181 726.247Z" fill="#00F0FF"/>
<path fill-rule="evenodd" clip-rule="evenodd" d="M457.186 651.372C607.51 651.372 729.372 529.51 729.372 379.186C729.372 228.862 607.51 107 457.186 107C306.862 107 185 228.862 185 379.186C185 529.51 306.862 651.372 457.186 651.372ZM457.186 488.061C517.316 488.061 566.06 439.316 566.06 379.186C566.06 319.056 517.316 270.312 457.186 270.312C397.056 270.312 348.312 319.056 348.312 379.186C348.312 439.316 397.056 488.061 457.186 488.061Z" fill="#92F8FF"/>
<rect x="402.749" y="324.749" width="108.874" height="108.874" rx="54" fill="#00EDFC"/>
</svg>
